HIERARCHY
ROOT hip
{
	OFFSET 0.000000 0.000000 0.000000 
	CHANNELS 6 Xposition Yposition Zposition Xrotation Zrotation Yrotation
	JOINT abdomen
	{
		OFFSET 0.000000 3.402643 0.000000 
		CHANNELS 3 Xrotation Zrotation Yrotation
		JOINT chest
		{
			OFFSET 0.000000 8.438565 -0.680529 
			CHANNELS 3 Xrotation Zrotation Yrotation
			JOINT neck
			{
				OFFSET 0.000000 10.207942 -0.272212 
				CHANNELS 3 Xrotation Zrotation Yrotation
				JOINT head
				{
					OFFSET 0.000000 3.130431 0.000000 
					CHANNELS 3 Xrotation Zrotation Yrotation
					End Site
					{
						OFFSET 0.000000 3.130435 0.000000 
					}
				}
			}
			JOINT lCollar
			{
				OFFSET 3.470700 6.669187 -0.816635 
				CHANNELS 3 Yrotation Zrotation Xrotation
				JOINT lShldr
				{
					OFFSET 3.198488 0.000000 0.000000 
					CHANNELS 3 Zrotation Yrotation Xrotation
					JOINT lForeArm
					{
						OFFSET 10.139888 0.000000 0.000000 
						CHANNELS 3 Yrotation Zrotation Xrotation
						JOINT lHand
						{
							OFFSET 8.370511 0.000000 0.000000 
							CHANNELS 3 Zrotation Yrotation Xrotation
							End Site
							{
								OFFSET 4.083176 0.000000 0.000000 
							}
						}
					}
				}
			}
			JOINT rCollar
			{
				OFFSET -3.470700 6.669187 -0.816635 
				CHANNELS 3 Yrotation Zrotation Xrotation
				JOINT rShldr
				{
					OFFSET -3.198488 0.000000 0.000000 
					CHANNELS 3 Zrotation Yrotation Xrotation
					JOINT rForeArm
					{
						OFFSET -10.139888 0.000000 0.000000 
						CHANNELS 3 Yrotation Zrotation Xrotation
						JOINT rHand
						{
							OFFSET -8.370511 0.000000 0.000000 
							CHANNELS 3 Zrotation Yrotation Xrotation
							End Site
							{
								OFFSET -4.083176 0.000000 0.000000 
							}
						}
					}
				}
			}
		}
	}
	JOINT lThigh
	{
		OFFSET 5.308129 -1.633274 1.361059 
		CHANNELS 3 Xrotation Zrotation Yrotation
		JOINT lShin
		{
			OFFSET -2.041588 -20.007561 0.000000 
			CHANNELS 3 Xrotation Zrotation Yrotation
			JOINT lFoot
			{
				OFFSET 0.000000 -19.190928 -1.224953 
				CHANNELS 3 Xrotation Yrotation Zrotation
				End Site
				{
					OFFSET 0.000000 -2.449906 4.627600 
				}
			}
		}
	}
	JOINT rThigh
	{
		OFFSET -5.308129 -1.633274 1.361059 
		CHANNELS 3 Xrotation Zrotation Yrotation
		JOINT rShin
		{
			OFFSET 2.041588 -20.007561 0.000000 
			CHANNELS 3 Xrotation Zrotation Yrotation
			JOINT rFoot
			{
				OFFSET 0.000000 -19.190928 -1.224953 
				CHANNELS 3 Xrotation Yrotation Zrotation
				End Site
				{
					OFFSET 0.000000 -2.449906 4.627600 
				}
			}
		}
	}
}
MOTION
Frames: 13
Frame Time: 0.033333
1.230612 41.466660 148.993484 7.882096 3.018143 168.025513 34.128906 -3.891822 8.315830 -20.839844 0.000000 0.000000 -8.004869 9.939229 13.764431 -2.520848 -1.255046 0.218349 -4.754608 -0.109225 -0.002657 -79.834290 -54.856430 33.401730 -26.960812 -15.573038 -3.056437 -3.796070 15.872535 -45.608517 4.754608 0.109225 -0.002676 83.902939 52.753048 26.619282 47.974632 12.826437 3.399399 1.346651 -38.301998 -13.129694 -38.518360 10.184256 -7.701176 43.551758 7.511548 -17.502159 -4.987494 -7.719859 -2.791764 17.204309 -16.327053 -19.293245 45.707115 11.204151 -13.230641 -34.894188 -20.918665 22.573317 
1.295666 41.385937 149.320908 8.943084 3.550174 167.550629 34.285046 -3.684322 8.466638 -20.839844 0.000000 0.000000 -7.360446 10.290592 14.660422 -2.520848 -1.255046 0.218349 -4.754608 -0.109225 -0.002657 -80.718971 -53.528656 34.241886 -26.143311 -15.784225 -2.202051 -2.718316 15.747860 -45.908802 4.754608 0.109225 -0.002676 85.706703 51.178940 27.209993 46.821880 12.523612 3.965998 1.336377 -37.457409 -12.561255 -37.090317 11.843837 -7.072116 42.163536 6.956900 -17.983967 -2.350307 -8.263529 -8.417743 17.632521 -16.286695 -19.181313 46.603340 11.087811 -12.668328 -35.475742 -20.644133 22.207724 
1.246406 41.322987 149.444809 9.857804 3.964225 166.674988 34.556133 -3.639784 8.160356 -20.839844 0.000000 0.000000 -7.195714 10.673311 16.406191 -2.520848 -1.255046 0.218349 -4.754608 -0.109225 -0.002657 -80.478561 -51.907681 34.003414 -26.211023 -16.319578 -0.931661 -0.834227 16.404346 -44.913589 4.754608 0.109225 -0.002676 86.799980 49.418526 27.462440 46.866978 12.818465 4.084073 0.155057 -35.263630 -12.286920 -36.444088 13.173412 -6.488069 42.373569 6.715473 -19.275301 -2.172144 -10.420772 -11.609874 17.868856 -16.395735 -18.697195 47.278522 10.471432 -12.180877 -35.585979 -20.920168 22.221231 
1.092603 41.347858 149.368652 10.539330 4.407102 165.253250 34.311089 -3.592158 7.816004 -20.839844 0.000000 0.000000 -6.403297 11.052387 18.816051 -2.520848 -1.255046 0.218349 -4.754608 -0.109225 -0.002657 -79.743828 -49.377151 33.064888 -27.080851 -17.317047 0.771911 1.884138 17.075706 -42.847660 4.754608 0.109225 -0.002676 86.961037 45.935673 26.521770 49.241119 13.944584 4.239959 -2.270345 -32.112762 -11.310725 -35.919117 14.245416 -6.314862 43.216969 6.992223 -20.928406 -3.995205 -12.577642 -12.270590 18.317768 -16.805334 -18.486000 47.184826 9.721656 -11.454573 -35.275173 -20.712042 22.336872 
0.867438 41.451942 149.088928 10.876024 5.236794 162.782272 33.406609 -3.155040 8.082116 -20.839844 0.000000 0.000000 -4.384950 11.274716 21.703976 -2.520848 -1.255046 0.218349 -4.754608 -0.109225 -0.002657 -79.233414 -46.080814 32.275135 -28.175278 -18.680573 2.903172 5.236904 16.747843 -40.373932 4.754608 0.109225 -0.002676 86.047737 40.150951 24.335142 54.336975 16.288433 4.484250 -5.270730 -28.284655 -9.747329 -34.481731 15.800346 -6.620503 43.470154 7.967999 -21.668240 -6.038472 -12.335357 -12.085043 19.077566 -17.732697 -18.929491 46.277863 9.155884 -10.111826 -34.761719 -19.086157 22.372801 
0.568983 41.569214 148.570068 11.030301 6.566962 158.787399 32.575329 -2.360824 9.227778 -20.839844 0.000000 0.000000 -1.699302 11.206859 25.340406 -2.520848 -1.255046 0.218349 -4.754608 -0.109225 -0.002657 -79.039253 -42.092556 31.798222 -29.485527 -20.583944 5.623291 8.368892 15.513525 -37.651768 4.754608 0.109225 -0.002676 84.101463 32.680107 21.747219 61.323475 20.216333 4.585516 -9.264118 -24.531664 -7.930838 -31.086721 18.239115 -6.797970 42.548054 9.214213 -21.099333 -6.672541 -9.273976 -13.390373 19.980009 -19.287472 -19.867426 44.979542 8.418621 -7.887098 -34.041882 -16.317480 22.399273 
0.161579 41.692070 147.788239 11.093662 7.927197 153.775589 32.019215 -1.226280 10.706621 -20.839844 0.000000 0.000000 0.725160 10.742478 29.572908 -2.520848 -1.255046 0.218349 -4.754608 -0.109225 -0.002657 -79.820244 -37.443447 32.230206 -30.511749 -23.011072 9.108191 11.097874 13.765118 -34.991421 4.754608 0.109225 -0.002676 80.617462 23.284090 18.686832 70.267883 25.755997 3.731575 -13.469518 -20.779766 -6.053034 -26.200739 20.478249 -6.293466 41.119659 9.964500 -19.739845 -7.000983 -5.048473 -17.448889 20.690025 -21.405180 -20.764687 43.287628 7.123557 -5.230942 -32.751629 -13.612803 22.880047 
-0.397650 41.897179 146.860214 10.973723 8.573223 148.794830 31.735880 0.087252 11.221669 -20.839844 0.000000 0.000000 2.409198 10.065359 34.358364 -2.520848 -1.255046 0.218349 -4.754608 -0.109225 -0.002657 -81.560081 -32.949013 33.803452 -30.590208 -25.675846 13.281347 12.345093 12.235613 -32.982990 4.754608 0.109225 -0.002676 75.810509 12.617470 15.930091 79.995476 32.345978 1.458947 -17.173161 -16.491179 -4.323093 -22.434834 21.391521 -4.839934 41.644318 9.619145 -17.399025 -9.820623 -1.658079 -19.770290 20.716928 -23.883554 -21.325928 40.976097 5.354314 -2.738281 -30.612112 -11.878294 23.823641 
-1.141199 42.148987 145.919983 10.725705 7.812071 144.464020 31.645988 0.955669 9.921470 -20.839844 0.000000 0.000000 3.368322 9.300376 39.652634 -2.520848 -1.255046 0.218349 -4.754608 -0.109225 -0.002657 -83.841286 -28.798977 36.240597 -29.570536 -28.408180 18.269585 12.421889 11.324697 -31.398632 4.754608 0.109225 -0.002676 70.671669 1.748523 13.932275 89.290916 38.478233 -2.065042 -18.820440 -12.339315 -2.734566 -20.822552 21.038404 -2.555970 43.392727 7.676989 -14.569068 -12.256087 -0.736585 -18.162113 19.455992 -27.212233 -21.882463 38.781124 3.392415 -0.203098 -27.575882 -10.703452 25.211575 
-2.056536 42.335815 145.078766 9.574489 5.421920 140.073807 31.120600 1.140290 7.794314 -20.839844 0.000000 0.000000 3.218448 9.025442 44.835182 -2.520848 -1.255046 0.218349 -4.754608 -0.109225 -0.002657 -86.238693 -24.636379 38.151543 -28.312943 -30.596504 22.703430 11.978741 10.797037 -30.118628 4.754608 0.109225 -0.002676 66.132759 -8.254105 12.362510 97.652374 42.677719 -6.023976 -17.154278 -8.931434 -0.990914 -21.619062 20.603567 0.064108 44.879848 4.627734 -12.176081 -13.332268 -1.727494 -16.796724 13.879762 -31.047527 -20.878443 39.665714 1.127336 1.665162 -26.946203 -10.272685 21.340141 
-3.095656 42.345459 144.473099 6.545822 1.688148 134.588409 30.304867 1.381770 6.096417 -20.839844 0.000000 0.000000 0.648432 9.988976 50.105251 -2.520848 -1.255046 0.218349 -4.754608 -0.109225 -0.002657 -87.860291 -20.570147 37.327450 -29.427614 -31.735521 24.513563 11.238556 9.894685 -27.176687 4.754608 0.109225 -0.002676 62.554821 -15.791058 10.813515 105.935570 43.944855 -10.082429 -13.217676 -6.606029 1.252025 -25.276928 21.244524 2.406445 45.967003 1.733284 -10.848087 -13.016155 -3.478561 -18.083227 0.857848 -33.609215 -15.934195 45.078217 -1.499294 2.070819 -26.608040 -10.497683 13.854481 
-4.225448 41.922050 144.251755 2.210545 -3.230021 129.269562 29.974405 1.699304 4.318970 -20.839844 0.000000 0.000000 -4.860065 12.833348 54.493443 -2.520848 -1.255046 0.218349 -4.754608 -0.109225 -0.002657 -88.639931 -18.206829 34.684761 -33.456100 -32.027126 23.985537 11.769451 8.483920 -21.860010 4.754608 0.109225 -0.002676 60.699085 -20.100632 8.962983 114.306480 41.923229 -13.615331 -9.215420 -5.264570 3.946062 -33.444965 22.820637 3.034419 49.867855 0.310435 -10.903456 -16.499859 -4.707367 -20.475756 -18.631720 -32.994450 -8.499855 56.012230 -3.505727 1.067175 -25.404667 -10.567492 8.131285 
-5.532749 41.072193 144.323318 -2.538423 -8.614714 126.384956 30.631247 1.804703 1.616384 -20.839844 0.000000 0.000000 -12.270095 16.894270 55.424824 -2.520848 -1.255046 0.218349 -4.754608 -0.109225 -0.002657 -89.218842 -17.887768 32.127140 -39.246876 -31.799603 23.092161 14.391692 6.886445 -14.472592 4.754608 0.109225 -0.002676 60.192299 -21.261683 7.214445 122.032166 37.931877 -16.369188 -7.516657 -3.758262 6.018775 -45.291702 23.768839 1.263360 55.341587 0.601306 -11.775413 -19.871586 -5.363539 -21.905920 -38.758579 -29.696320 -3.255553 69.895920 -3.154062 0.205533 -27.850704 -10.256073 9.086070 
